<?xml version="1.0" encoding="UTF-8" standalone="no"?>
<svg
   version="1.1"
   width="630"
   height="500"
   viewBox="0 0 630 500"
   xml:space="preserve"
   id="svg1"
   sodipodi:docname="jam.svg"
   inkscape:version="1.3.2 (091e20ef0f, 2023-11-25, custom)"
   inkscape:export-filename="jam.png"
   inkscape:export-xdpi="96"
   inkscape:export-ydpi="96"
   xmlns:inkscape="http://www.inkscape.org/namespaces/inkscape"
   xmlns:sodipodi="http://sodipodi.sourceforge.net/DTD/sodipodi-0.dtd"
   xmlns:xlink="http://www.w3.org/1999/xlink"
   xmlns="http://www.w3.org/2000/svg"
   xmlns:svg="http://www.w3.org/2000/svg"><sodipodi:namedview
   id="namedview1"
   pagecolor="#505050"
   bordercolor="#eeeeee"
   borderopacity="1"
   inkscape:showpageshadow="0"
   inkscape:pageopacity="0"
   inkscape:pagecheckerboard="0"
   inkscape:deskcolor="#d1d1d1"
   inkscape:zoom="0.5"
   inkscape:cx="416"
   inkscape:cy="185"
   inkscape:window-width="1920"
   inkscape:window-height="1012"
   inkscape:window-x="0"
   inkscape:window-y="32"
   inkscape:window-maximized="1"
   inkscape:current-layer="svg1" />

<defs
   id="defs1"><rect
   x="98.415649"
   y="358.86328"
   width="582.94103"
   height="112.37823"
   id="rect1" />
<linearGradient
   inkscape:collect="always"
   id="linearGradient5268"><stop
     style="stop-color:#9e9efa;stop-opacity:1"
     offset="0"
     id="stop5264" /><stop
     style="stop-color:#3400ae;stop-opacity:1"
     offset="1"
     id="stop5266" /></linearGradient><linearGradient
   inkscape:collect="always"
   xlink:href="#linearGradient5268"
   id="linearGradient5274"
   x1="5e-07"
   y1="5e-07"
   x2="256"
   y2="256"
   gradientUnits="userSpaceOnUse"
   gradientTransform="matrix(0.6511231,0,0,0.51676436,-2.2638348,1.3366508e-5)" /><linearGradient
   inkscape:collect="always"
   xlink:href="#linearGradient5268"
   id="linearGradient967"
   gradientUnits="userSpaceOnUse"
   x1="5e-07"
   y1="5e-07"
   x2="256"
   y2="256"
   gradientTransform="matrix(0.65112305,0,0,0.51676435,-2.2638342,-1.8886702e-7)" /></defs>

<g
   inkscape:label="Layer 1"
   id="layer1"
   transform="matrix(3.7795276,0,0,3.7795276,8.5562231,-4.9226784e-7)"><rect
     style="display:inline;opacity:0.987203;fill:url(#linearGradient5274);fill-opacity:1;fill-rule:nonzero;stroke:#000080;stroke-width:0;stroke-miterlimit:4;stroke-dasharray:none"
     id="rect882"
     width="166.6875"
     height="132.29167"
     x="-2.2638342"
     y="1.3024587e-07"
     inkscape:transform-center-x="-47.907577"
     inkscape:transform-center-y="37.518285"
     ry="0"
     inkscape:export-filename="../../../../../../../Downloads/icon_full.png"
     inkscape:export-xdpi="25.4"
     inkscape:export-ydpi="25.4"
     inkscape:label="full" /><rect
     style="display:none;opacity:0.987203;fill:url(#linearGradient967);fill-opacity:1;fill-rule:nonzero;stroke:#000080;stroke-width:0;stroke-miterlimit:4;stroke-dasharray:none"
     id="rect903"
     width="166.6875"
     height="132.29167"
     x="-2.263834"
     y="1.3024587e-07"
     inkscape:transform-center-x="-47.90757"
     inkscape:transform-center-y="37.51829"
     ry="20.670572"
     inkscape:export-filename="C:\Users\Nordup\Downloads\icon.png"
     inkscape:export-xdpi="25.4"
     inkscape:export-ydpi="25.4"
     inkscape:label="rounded" /><path
     style="display:inline;fill:none;stroke:#ffffff;stroke-width:0.475903;stroke-linecap:butt;stroke-linejoin:round;stroke-miterlimit:2;stroke-dasharray:none;stroke-dashoffset:40.2195;stroke-opacity:1"
     d="m 118.87498,24.580665 c 0,0 0,-1.972134 0,-2.284181 0,-0.312049 0.0948,-1.427613 1.26106,-1.427613 1.17119,0 1.26105,1.115327 1.26105,1.427613 v 2.284181"
     id="path2550"
     sodipodi:nodetypes="csscc"
     inkscape:label="small" /><path
     style="display:inline;fill:none;stroke:#ffffff;stroke-width:1.25619;stroke-linecap:butt;stroke-linejoin:round;stroke-miterlimit:2;stroke-dasharray:none;stroke-dashoffset:40.2195;stroke-opacity:1"
     d="m 116.80737,27.818647 c 0,0 0,-5.205622 0,-6.029301 0,-0.823681 0.25028,-3.768314 3.32867,-3.768314 3.09148,0 3.32868,2.944006 3.32868,3.768314 v 6.029301"
     id="path2547"
     sodipodi:nodetypes="csscc"
     inkscape:label="medium" /><path
     style="display:inline;fill:none;stroke:#ffffff;stroke-width:2.51549;stroke-linecap:butt;stroke-linejoin:round;stroke-miterlimit:2;stroke-dasharray:none;stroke-dashoffset:40.2195;stroke-opacity:1"
     d="m 113.47041,33.04457 c 0,0 0,-10.424257 0,-12.073678 0,-1.649417 0.5012,-7.546048 6.66563,-7.546048 6.19064,0 6.66562,5.895373 6.66562,7.546048 V 33.04457"
     id="path1246"
     sodipodi:nodetypes="csscc"
     inkscape:label="big" /></g><g
   style="opacity:1;fill:#fefefe;fill-opacity:1;fill-rule:nonzero;stroke:none;stroke-width:0;stroke-linecap:butt;stroke-linejoin:miter;stroke-miterlimit:10;stroke-dasharray:none"
   transform="matrix(2.81,0,0,2.81,1.4065934,1.4065934)"
   id="g1">
	<path
   d="m 161.33573,60.549099 c -4.34155,-7.443028 -12.9148,-11.324922 -21.37187,-9.67821 l -16.31304,3.175978 c -3.12674,0.608676 -6.29766,0.913014 -9.46859,0.913014 -3.17093,0 -6.34185,-0.304338 -9.46858,-0.913014 L 88.400606,50.870889 c -8.457069,-1.646712 -17.031578,2.235182 -21.371873,9.67821 -11.888138,20.38183 -14.348101,62.029441 1.358788,62.029441 6.92275,0 11.835098,-1.71363 17.664251,-7.21319 8.98998,-8.54673 16.403968,-11.96012 28.130458,-12.54858 11.7265,0.58846 19.14048,4.00058 28.13046,12.54858 5.83042,5.49956 10.74277,7.21319 17.66425,7.21319 15.7069,0 13.24693,-41.647611 1.35879,-62.029441 z m -57.44038,19.523114 c 0,2.827444 -2.29201,5.119453 -5.120722,5.119453 h -5.27225 v 5.272255 c 0,2.82743 -2.292007,5.1207 -5.120713,5.1207 -2.827441,0 -5.120712,-2.29201 -5.120712,-5.1207 v -5.272255 h -5.270991 c -2.827441,0 -5.11945,-2.292009 -5.11945,-5.119453 v 0 c 0,-2.827441 2.292009,-5.11945 5.11945,-5.11945 h 5.272254 v -5.272249 c 0,-2.827443 2.292008,-5.120714 5.120713,-5.120714 2.827442,0 5.120712,2.292009 5.120712,5.120714 v 5.272249 h 5.272251 c 2.827448,0 5.119458,2.292009 5.119458,5.11945 z m 25.01635,4.442582 c -2.45365,0 -4.44258,-1.988933 -4.44258,-4.442582 0,-2.453648 1.98893,-4.442579 4.44258,-4.442579 2.45365,0 4.44259,1.988931 4.44259,4.442579 0,2.453649 -1.98894,4.442582 -4.44259,4.442582 z m 11.06983,11.071096 c -2.45364,0 -4.44258,-1.98894 -4.44258,-4.44259 0,-2.453637 1.98894,-4.442572 4.44258,-4.442572 2.45365,0 4.44259,1.988935 4.44259,4.442572 0,2.45365 -1.98894,4.44259 -4.44259,4.44259 z m 0,-22.142192 c -2.45364,0 -4.44258,-1.988932 -4.44258,-4.442582 0,-2.453647 1.98894,-4.442582 4.44258,-4.442582 2.45365,0 4.44259,1.988935 4.44259,4.442582 0,2.45365 -1.98894,4.442582 -4.44259,4.442582 z m 11.0711,11.071096 c -2.45365,0 -4.44258,-1.988933 -4.44258,-4.442582 0,-2.453648 1.98893,-4.442579 4.44258,-4.442579 2.45365,0 4.44258,1.988931 4.44258,4.442579 0,2.453649 -1.98893,4.442582 -4.44258,4.442582 z"
   style="display:inline;opacity:1;fill:#fefefe;fill-opacity:1;fill-rule:nonzero;stroke:none;stroke-width:1.26281;stroke-linecap:butt;stroke-linejoin:miter;stroke-miterlimit:10;stroke-dasharray:none"
   stroke-linecap="round"
   id="path1" />
</g><text
   xml:space="preserve"
   id="text1"
   style="font-style:normal;font-variant:normal;font-weight:bold;font-stretch:normal;font-size:74.6667px;font-family:FreeSerif;-inkscape-font-specification:'FreeSerif, Bold';font-variant-ligatures:normal;font-variant-caps:normal;font-variant-numeric:normal;font-variant-east-asian:normal;white-space:pre;shape-inside:url(#rect1);display:inline;fill:#000000;stroke-width:19.5;stroke-dasharray:none"
   transform="matrix(1.0752299,0,0,1.0752299,-27.369776,-28.531764)"><tspan
     x="98.416016"
     y="427.92998"
     id="tspan3"><tspan
       style="fill:#ffffff"
       id="tspan2">TheGates Jam</tspan></tspan></text></svg>
