<?xml version="1.0" encoding="UTF-8" standalone="no"?>
<svg
   version="1.1"
   width="256"
   height="256"
   viewBox="0 0 256 256"
   xml:space="preserve"
   id="svg1"
   sodipodi:docname="gamepad.svg"
   inkscape:version="1.3.2 (091e20ef0f, 2023-11-25, custom)"
   xmlns:inkscape="http://www.inkscape.org/namespaces/inkscape"
   xmlns:sodipodi="http://sodipodi.sourceforge.net/DTD/sodipodi-0.dtd"
   xmlns:xlink="http://www.w3.org/1999/xlink"
   xmlns="http://www.w3.org/2000/svg"
   xmlns:svg="http://www.w3.org/2000/svg"><sodipodi:namedview
   id="namedview1"
   pagecolor="#505050"
   bordercolor="#eeeeee"
   borderopacity="1"
   inkscape:showpageshadow="0"
   inkscape:pageopacity="0"
   inkscape:pagecheckerboard="0"
   inkscape:deskcolor="#d1d1d1"
   inkscape:zoom="2.2069466"
   inkscape:cx="132.08294"
   inkscape:cy="92.661963"
   inkscape:window-width="1920"
   inkscape:window-height="1012"
   inkscape:window-x="0"
   inkscape:window-y="32"
   inkscape:window-maximized="1"
   inkscape:current-layer="svg1" />

<defs
   id="defs1">
<linearGradient
   inkscape:collect="always"
   id="linearGradient5268"><stop
     style="stop-color:#9e9efa;stop-opacity:1"
     offset="0"
     id="stop5264" /><stop
     style="stop-color:#3400ae;stop-opacity:1"
     offset="1"
     id="stop5266" /></linearGradient><linearGradient
   inkscape:collect="always"
   xlink:href="#linearGradient5268"
   id="linearGradient5274"
   x1="5e-07"
   y1="5e-07"
   x2="256"
   y2="256"
   gradientUnits="userSpaceOnUse"
   gradientTransform="matrix(0.26458333,0,0,0.26458333,-2.2638344,6.5e-6)" /><linearGradient
   inkscape:collect="always"
   xlink:href="#linearGradient5268"
   id="linearGradient967"
   gradientUnits="userSpaceOnUse"
   x1="5e-07"
   y1="5e-07"
   x2="256"
   y2="256"
   gradientTransform="matrix(0.26458332,0,0,0.26458332,-2.2638341,0)" /></defs>

<g
   inkscape:label="Layer 1"
   id="layer1"
   transform="matrix(3.7795276,0,0,3.7795276,8.5562231,-4.9226784e-7)"><rect
     style="display:none;opacity:0.987203;fill:url(#linearGradient5274);fill-opacity:1;fill-rule:nonzero;stroke:#000080;stroke-width:0;stroke-miterlimit:4;stroke-dasharray:none"
     id="rect882"
     width="67.73333"
     height="67.73333"
     x="-2.2638342"
     y="-2.7294922e-07"
     inkscape:transform-center-x="-19.467208"
     inkscape:transform-center-y="19.209354"
     ry="0"
     inkscape:export-filename="../../../../../../../Downloads/icon_full.png"
     inkscape:export-xdpi="25.4"
     inkscape:export-ydpi="25.4"
     inkscape:label="full" /><rect
     style="display:inline;opacity:0.987203;fill:url(#linearGradient967);fill-opacity:1;fill-rule:nonzero;stroke:#000080;stroke-width:0;stroke-miterlimit:4;stroke-dasharray:none"
     id="rect903"
     width="67.73333"
     height="67.73333"
     x="-2.263834"
     y="1.3024587e-07"
     inkscape:transform-center-x="-19.467205"
     inkscape:transform-center-y="19.209361"
     ry="10.583333"
     inkscape:export-filename="C:\Users\Nordup\Downloads\icon.png"
     inkscape:export-xdpi="25.4"
     inkscape:export-ydpi="25.4"
     inkscape:label="rounded" /><path
     style="display:inline;fill:none;stroke:#ffffff;stroke-width:0.29347;stroke-linecap:butt;stroke-linejoin:round;stroke-miterlimit:2;stroke-dasharray:none;stroke-dashoffset:40.2195;stroke-opacity:1"
     d="m 53.687269,13.42233 c 0,0 0,-1.216135 0,-1.408562 0,-0.192428 0.05848,-0.880351 0.777644,-0.880351 0.72223,0 0.777643,0.687777 0.777643,0.880351 v 1.408562"
     id="path2550"
     sodipodi:nodetypes="csscc"
     inkscape:label="small" /><path
     style="display:inline;fill:none;stroke:#ffffff;stroke-width:0.774643;stroke-linecap:butt;stroke-linejoin:round;stroke-miterlimit:2;stroke-dasharray:none;stroke-dashoffset:40.2195;stroke-opacity:1"
     d="m 52.412253,15.419062 c 0,0 0,-3.210096 0,-3.718026 0,-0.50793 0.154343,-2.3237655 2.05266,-2.3237655 1.906391,0 2.05266,1.8154485 2.05266,2.3237655 v 3.718026"
     id="path2547"
     sodipodi:nodetypes="csscc"
     inkscape:label="medium" /><path
     style="display:inline;fill:none;stroke:#ffffff;stroke-width:1.5512;stroke-linecap:butt;stroke-linejoin:round;stroke-miterlimit:2;stroke-dasharray:none;stroke-dashoffset:40.2195;stroke-opacity:1"
     d="m 50.354488,18.641677 c 0,0 0,-6.428217 0,-7.445348 0,-1.017128 0.309073,-4.6533414 4.110425,-4.6533414 3.81752,0 4.110423,3.6354374 4.110423,4.6533414 v 7.445348"
     id="path1246"
     sodipodi:nodetypes="csscc"
     inkscape:label="big" /></g><g
   style="stroke:none;stroke-width:0;stroke-dasharray:none;stroke-linecap:butt;stroke-linejoin:miter;stroke-miterlimit:10;fill:#fefefe;fill-rule:nonzero;opacity:1;fill-opacity:1"
   transform="matrix(2.81,0,0,2.81,1.4065934,1.4065934)"
   id="g1">
	<path
   d="m 74.077651,34.811897 c -2.677262,-4.589814 -7.964036,-6.98362 -13.179168,-5.96816 l -10.05959,1.958497 C 48.910765,31.17758 46.955383,31.365253 45,31.365253 c -1.955383,0 -3.910765,-0.187673 -5.838893,-0.563019 l -10.05959,-1.958497 c -5.215132,-1.01546 -10.502684,1.378346 -13.179168,5.96816 -7.3309323,12.568648 -8.8478917,38.251051 0.83791,38.251051 4.268979,0 7.298225,-1.056732 10.892827,-4.448087 C 33.196842,63.34444 37.768745,61.239542 45,60.876655 c 7.231255,0.362887 11.803158,2.467006 17.346914,7.738206 3.59538,3.391355 6.624627,4.448087 10.892827,4.448087 9.685802,0 8.168842,-25.682403 0.83791,-38.251051 z M 38.656493,46.85101 c 0,1.74357 -1.413388,3.156959 -3.157737,3.156959 h -3.251183 v 3.251183 c 0,1.743568 -1.413388,3.157736 -3.157736,3.157736 -1.743568,0 -3.157736,-1.413389 -3.157736,-3.157736 v -3.251183 h -3.250406 c -1.743568,0 -3.156957,-1.413389 -3.156957,-3.156959 v 0 c 0,-1.743568 1.413389,-3.156957 3.156957,-3.156957 H 25.93288 V 40.44287 c 0,-1.743569 1.413389,-3.157736 3.157736,-3.157736 1.743569,0 3.157736,1.413389 3.157736,3.157736 v 3.251183 h 3.251183 c 1.74357,0 3.156958,1.413389 3.156958,3.156957 z m 15.426574,2.73956 c -1.513065,0 -2.73956,-1.226494 -2.73956,-2.73956 0,-1.513065 1.226495,-2.739559 2.73956,-2.739559 1.513066,0 2.73956,1.226494 2.73956,2.739559 0,1.513066 -1.226494,2.73956 -2.73956,2.73956 z m 6.826317,6.827096 c -1.513065,0 -2.739561,-1.226494 -2.739561,-2.739559 0,-1.513066 1.226496,-2.73956 2.739561,-2.73956 1.513066,0 2.739561,1.226494 2.739561,2.73956 0,1.513065 -1.226495,2.739559 -2.739561,2.739559 z m 0,-13.654192 c -1.513065,0 -2.739561,-1.226494 -2.739561,-2.73956 0,-1.513065 1.226496,-2.73956 2.739561,-2.73956 1.513066,0 2.739561,1.226495 2.739561,2.73956 0,1.513066 -1.226495,2.73956 -2.739561,2.73956 z m 6.827097,6.827096 c -1.513066,0 -2.739561,-1.226494 -2.739561,-2.73956 0,-1.513065 1.226495,-2.739559 2.739561,-2.739559 1.513065,0 2.73956,1.226494 2.73956,2.739559 0,1.513066 -1.226495,2.73956 -2.73956,2.73956 z"
   style="display:inline;opacity:1;fill:#fefefe;fill-opacity:1;fill-rule:nonzero;stroke:none;stroke-width:0.778727;stroke-linecap:butt;stroke-linejoin:miter;stroke-miterlimit:10;stroke-dasharray:none"
   stroke-linecap="round"
   id="path1" />
</g></svg>
